<svg width="32" height="33" viewBox="0 0 32 33" fill="none" xmlns="http://www.w3.org/2000/svg">
<g id="Car">
<path id="Vector" d="M30 14.6873H28.65L25.1775 6.87476C25.0204 6.52129 24.7641 6.22098 24.4397 6.01021C24.1153 5.79944 23.7368 5.68726 23.35 5.68726H8.65C8.26317 5.68726 7.88465 5.79944 7.56029 6.01021C7.23593 6.22098 6.97965 6.52129 6.8225 6.87476L3.35 14.6873H2C1.73478 14.6873 1.48043 14.7926 1.29289 14.9801C1.10536 15.1677 1 15.422 1 15.6873C1 15.9525 1.10536 16.2068 1.29289 16.3944C1.48043 16.5819 1.73478 16.6873 2 16.6873H3V26.6873C3 27.2177 3.21071 27.7264 3.58579 28.1015C3.96086 28.4765 4.46957 28.6873 5 28.6873H8C8.53043 28.6873 9.03914 28.4765 9.41421 28.1015C9.78929 27.7264 10 27.2177 10 26.6873V24.6873H22V26.6873C22 27.2177 22.2107 27.7264 22.5858 28.1015C22.9609 28.4765 23.4696 28.6873 24 28.6873H27C27.5304 28.6873 28.0391 28.4765 28.4142 28.1015C28.7893 27.7264 29 27.2177 29 26.6873V16.6873H30C30.2652 16.6873 30.5196 16.5819 30.7071 16.3944C30.8946 16.2068 31 15.9525 31 15.6873C31 15.422 30.8946 15.1677 30.7071 14.9801C30.5196 14.7926 30.2652 14.6873 30 14.6873ZM10 20.6873H8C7.73478 20.6873 7.48043 20.5819 7.29289 20.3944C7.10536 20.2068 7 19.9525 7 19.6873C7 19.422 7.10536 19.1677 7.29289 18.9801C7.48043 18.7926 7.73478 18.6873 8 18.6873H10C10.2652 18.6873 10.5196 18.7926 10.7071 18.9801C10.8946 19.1677 11 19.422 11 19.6873C11 19.9525 10.8946 20.2068 10.7071 20.3944C10.5196 20.5819 10.2652 20.6873 10 20.6873ZM22 20.6873C21.7348 20.6873 21.4804 20.5819 21.2929 20.3944C21.1054 20.2068 21 19.9525 21 19.6873C21 19.422 21.1054 19.1677 21.2929 18.9801C21.4804 18.7926 21.7348 18.6873 22 18.6873H24C24.2652 18.6873 24.5196 18.7926 24.7071 18.9801C24.8946 19.1677 25 19.422 25 19.6873C25 19.9525 24.8946 20.2068 24.7071 20.3944C24.5196 20.5819 24.2652 20.6873 24 20.6873H22Z" fill="black"/>
</g>
</svg>
