<svg width="32" height="33" viewBox="0 0 32 33" fill="none" xmlns="http://www.w3.org/2000/svg">
<g id="CaretDown">
<path id="Vector" d="M26.7075 13.3948L16.7075 23.3948C16.6146 23.4878 16.5043 23.5615 16.3829 23.6118C16.2615 23.6622 16.1314 23.6881 16 23.6881C15.8686 23.6881 15.7385 23.6622 15.6171 23.6118C15.4957 23.5615 15.3854 23.4878 15.2925 23.3948L5.29249 13.3948C5.15248 13.2549 5.05712 13.0767 5.01846 12.8826C4.97981 12.6885 4.99962 12.4873 5.07537 12.3045C5.15112 12.1217 5.27942 11.9654 5.44401 11.8556C5.60861 11.7457 5.8021 11.6871 5.99999 11.6873H26C26.1979 11.6871 26.3914 11.7457 26.556 11.8556C26.7206 11.9654 26.8489 12.1217 26.9246 12.3045C27.0004 12.4873 27.0202 12.6885 26.9815 12.8826C26.9429 13.0767 26.8475 13.2549 26.7075 13.3948Z" fill="black"/>
</g>
</svg>
