<svg width="32" height="33" viewBox="0 0 32 33" fill="none" xmlns="http://www.w3.org/2000/svg">
<g id="Footprints">
<path id="Vector" d="M27.0076 24.6873V26.1873C27.0076 27.3817 26.5331 28.5273 25.6885 29.3719C24.8439 30.2165 23.6983 30.691 22.5039 30.691C21.3094 30.691 20.1638 30.2165 19.3192 29.3719C18.4746 28.5273 18.0001 27.3817 18.0001 26.1873V24.6873C18.0001 24.422 18.1055 24.1677 18.293 23.9801C18.4805 23.7926 18.7349 23.6873 19.0001 23.6873H26.0001C26.1321 23.6863 26.2629 23.7114 26.3851 23.7612C26.5073 23.811 26.6184 23.8845 26.7121 23.9775C26.8057 24.0704 26.8801 24.181 26.9308 24.3028C26.9815 24.4246 27.0076 24.5553 27.0076 24.6873ZM13.0001 20.6873H6.00011C5.73489 20.6873 5.48054 20.7926 5.293 20.9801C5.10547 21.1677 5.00011 21.422 5.00011 21.6873V23.1873C5.00011 24.3807 5.47421 25.5253 6.31813 26.3692C7.16204 27.2132 8.30663 27.6873 9.50011 27.6873C10.6936 27.6873 11.8382 27.2132 12.6821 26.3692C13.526 25.5253 14.0001 24.3807 14.0001 23.1873V21.6873C14.0001 21.422 13.8948 21.1677 13.7072 20.9801C13.5197 20.7926 13.2653 20.6873 13.0001 20.6873ZM9.50011 2.68726C8.04511 2.68726 6.63386 3.97601 5.52511 6.31226C3.78386 9.98476 3.20511 15.4373 5.56136 18.3123C5.65531 18.4269 5.77359 18.5193 5.90763 18.5826C6.04166 18.646 6.18811 18.6787 6.33636 18.6785H12.6551C12.8034 18.6787 12.9498 18.646 13.0838 18.5826C13.2179 18.5193 13.3362 18.4269 13.4301 18.3123C15.7864 15.4373 15.2076 9.98101 13.4664 6.31226C12.3564 3.97601 10.9464 2.68726 9.50011 2.68726ZM19.3501 21.6873H25.6689C25.8171 21.6875 25.9636 21.6547 26.0976 21.5914C26.2316 21.528 26.3499 21.4357 26.4439 21.321C28.8001 18.446 28.2214 12.9898 26.4801 9.32101C25.3664 6.97601 23.9551 5.68726 22.5001 5.68726C21.0451 5.68726 19.6389 6.97601 18.5289 9.31226C16.7876 12.9848 16.2089 18.4373 18.5651 21.3123C18.6587 21.4292 18.7774 21.5236 18.9124 21.5885C19.0474 21.6534 19.1953 21.6872 19.3451 21.6873H19.3501Z" fill="black"/>
</g>
</svg>
