<svg width="33" height="33" viewBox="0 0 33 33" fill="none" xmlns="http://www.w3.org/2000/svg">
<path d="M30.6582 12.1397C30.6582 20.8897 17.6845 27.9722 17.132 28.2647C16.9863 28.343 16.8236 28.3841 16.6582 28.3841C16.4928 28.3841 16.3301 28.343 16.1845 28.2647C15.632 27.9722 2.6582 20.8897 2.6582 12.1397C2.66052 10.085 3.47778 8.1151 4.93068 6.66219C6.38359 5.20928 8.35349 4.39203 10.4082 4.38971C12.9895 4.38971 15.2495 5.49971 16.6582 7.37596C18.067 5.49971 20.327 4.38971 22.9082 4.38971C24.9629 4.39203 26.9328 5.20928 28.3857 6.66219C29.8386 8.1151 30.6559 10.085 30.6582 12.1397Z" fill="white"/>
</svg>
