<svg width="42" height="42" viewBox="0 0 42 42" fill="none" xmlns="http://www.w3.org/2000/svg">
<g id="Heart">
<path id="Vector" d="M29.3593 4.66528C26.1405 4.66528 23.2838 5.93583 21.3483 8.11962C19.4129 5.93583 16.5561 4.66528 13.3373 4.66528C10.5338 4.66868 7.84613 5.78386 5.86377 7.76623C3.8814 9.7486 2.76621 12.4363 2.76282 15.2398C2.76282 26.8301 19.7157 36.0908 20.4367 36.4801C20.7168 36.631 21.0301 36.71 21.3483 36.71C21.6665 36.71 21.9798 36.631 22.26 36.4801C22.981 36.0908 39.9338 26.8301 39.9338 15.2398C39.9304 12.4363 38.8152 9.7486 36.8329 7.76623C34.8505 5.78386 32.1628 4.66868 29.3593 4.66528ZM28.4797 27.4742C26.2483 29.3677 23.8629 31.0719 21.3483 32.5692C18.8337 31.0719 16.4484 29.3677 14.2169 27.4742C10.745 24.4957 6.60809 19.9535 6.60809 15.2398C6.60809 13.4551 7.31706 11.7435 8.57904 10.4815C9.84101 9.21953 11.5526 8.51056 13.3373 8.51056C16.1892 8.51056 18.5765 10.0166 19.5683 12.4424C19.7126 12.796 19.959 13.0986 20.2761 13.3116C20.5931 13.5246 20.9664 13.6384 21.3483 13.6384C21.7303 13.6384 22.1035 13.5246 22.4206 13.3116C22.7376 13.0986 22.984 12.796 23.1284 12.4424C24.1201 10.0166 26.5074 8.51056 29.3593 8.51056C31.144 8.51056 32.8556 9.21953 34.1176 10.4815C35.3796 11.7435 36.0885 13.4551 36.0885 15.2398C36.0885 19.9535 31.9517 24.4957 28.4797 27.4742Z" fill="white"/>
</g>
</svg>
