<svg width="32" height="33" viewBox="0 0 32 33" fill="none" xmlns="http://www.w3.org/2000/svg">
<g id="MapPin">
<path id="Vector" d="M16 2.68726C13.0836 2.69056 10.2877 3.85055 8.22548 5.91274C6.1633 7.97492 5.00331 10.7709 5 13.6873C5 23.0998 15 30.2085 15.4263 30.506C15.5944 30.6238 15.7947 30.687 16 30.687C16.2053 30.687 16.4056 30.6238 16.5737 30.506C17 30.2085 27 23.0998 27 13.6873C26.9967 10.7709 25.8367 7.97492 23.7745 5.91274C21.7123 3.85055 18.9164 2.69056 16 2.68726ZM16 9.68726C16.7911 9.68726 17.5645 9.92185 18.2223 10.3614C18.8801 10.8009 19.3928 11.4256 19.6955 12.1565C19.9983 12.8874 20.0775 13.6917 19.9231 14.4676C19.7688 15.2435 19.3878 15.9563 18.8284 16.5157C18.269 17.0751 17.5563 17.4561 16.7804 17.6104C16.0044 17.7647 15.2002 17.6855 14.4693 17.3828C13.7384 17.08 13.1136 16.5673 12.6741 15.9095C12.2346 15.2517 12 14.4784 12 13.6873C12 12.6264 12.4214 11.609 13.1716 10.8588C13.9217 10.1087 14.9391 9.68726 16 9.68726Z" fill="white"/>
</g>
</svg>
