<svg width="32" height="33" viewBox="0 0 32 33" fill="none" xmlns="http://www.w3.org/2000/svg">
<g id="Mountains" clip-path="url(#clip0_792_845)">
<path id="Vector" d="M17 7.18726C17 6.49502 17.2053 5.81833 17.5899 5.24276C17.9744 4.66719 18.5211 4.21859 19.1606 3.95368C19.8001 3.68877 20.5039 3.61946 21.1828 3.75451C21.8617 3.88956 22.4854 4.2229 22.9749 4.71238C23.4644 5.20187 23.7977 5.82551 23.9327 6.50444C24.0678 7.18337 23.9985 7.88711 23.7336 8.52665C23.4687 9.16619 23.0201 9.71282 22.4445 10.0974C21.8689 10.482 21.1922 10.6873 20.5 10.6873C19.5717 10.6873 18.6815 10.3185 18.0251 9.66213C17.3687 9.00575 17 8.11552 17 7.18726ZM31.875 26.1873C31.787 26.3397 31.6603 26.4662 31.5078 26.554C31.3553 26.6418 31.1822 26.6877 31.0062 26.6873H0.999995C0.823756 26.6872 0.650666 26.6405 0.498258 26.552C0.345849 26.4635 0.219535 26.3363 0.132109 26.1833C0.0446841 26.0303 -0.000746703 25.8569 0.000418594 25.6806C0.00158389 25.5044 0.0493039 25.3316 0.138745 25.1798L9.27625 9.67226C9.45286 9.37208 9.70481 9.12324 10.0071 8.95034C10.3095 8.77745 10.6517 8.6865 11 8.6865C11.3483 8.6865 11.6905 8.77745 11.9928 8.95034C12.2952 9.12324 12.5471 9.37208 12.7237 9.67226L18.3287 19.1873L21.5987 13.6698C21.774 13.3695 22.0252 13.1206 22.3271 12.9481C22.6291 12.7757 22.971 12.6857 23.3187 12.6873C23.6664 12.6855 24.0083 12.7751 24.3104 12.9471C24.6125 13.1191 24.8641 13.3674 25.04 13.6673L31.86 25.1773C31.9519 25.3291 32.0018 25.5027 32.0044 25.6802C32.007 25.8577 31.9624 26.0327 31.875 26.1873ZM8.05375 15.6873H13.9462L11 10.6873L8.05375 15.6873Z" fill="black"/>
</g>
<defs>
<clipPath id="clip0_792_845">
<rect width="32" height="32" fill="white" transform="translate(0 0.687256)"/>
</clipPath>
</defs>
</svg>
