<svg width="32" height="33" viewBox="0 0 32 33" fill="none" xmlns="http://www.w3.org/2000/svg">
<g id="RoadHorizon">
<path id="Vector" d="M29.875 24.1973L21.71 9.68726H28.96C29.2195 9.69298 29.4715 9.59962 29.6647 9.42617C29.8579 9.25271 29.9778 9.01219 30 8.75351C30.0091 8.61673 29.9899 8.47953 29.9437 8.35045C29.8976 8.22138 29.8254 8.10317 29.7316 8.00318C29.6378 7.90318 29.5245 7.82354 29.3986 7.7692C29.2727 7.71485 29.1371 7.68696 29 7.68726H3.03373C2.77523 7.68315 2.52479 7.77723 2.33294 7.95053C2.14108 8.12382 2.02209 8.36343 1.99998 8.62101C1.99089 8.7578 2.01003 8.89499 2.0562 9.02407C2.10238 9.15315 2.1746 9.27136 2.26837 9.37135C2.36215 9.47134 2.47549 9.55098 2.60135 9.60533C2.7272 9.65968 2.86289 9.68756 2.99998 9.68726H10.29L2.12498 24.1973C2.02016 24.3836 1.97781 24.5986 2.00413 24.8107C2.03045 25.0228 2.12406 25.221 2.27123 25.376C2.36862 25.476 2.48533 25.5552 2.61426 25.6087C2.74319 25.6622 2.88165 25.6889 3.02123 25.6873H14.5C14.6326 25.6873 14.7598 25.6346 14.8535 25.5408C14.9473 25.447 15 25.3199 15 25.1873V22.721C14.9965 22.4629 15.0909 22.2131 15.2641 22.0218C15.4373 21.8305 15.6766 21.7119 15.9337 21.6898C16.0705 21.6807 16.2077 21.6998 16.3368 21.746C16.4659 21.7922 16.5841 21.8644 16.6841 21.9582C16.7841 22.0519 16.8637 22.1653 16.918 22.2911C16.9724 22.417 17.0003 22.5527 17 22.6898V25.1898C17 25.3224 17.0527 25.4495 17.1464 25.5433C17.2402 25.6371 17.3674 25.6898 17.5 25.6898H28.9712C29.1108 25.6914 29.2493 25.6647 29.3782 25.6112C29.5071 25.5577 29.6238 25.4785 29.7212 25.3785C29.8702 25.2241 29.9655 25.026 29.9932 24.8133C30.0209 24.6006 29.9794 24.3846 29.875 24.1973ZM17 18.1873C17 18.4525 16.8946 18.7068 16.7071 18.8944C16.5195 19.0819 16.2652 19.1873 16 19.1873C15.7348 19.1873 15.4804 19.0819 15.2929 18.8944C15.1053 18.7068 15 18.4525 15 18.1873V16.1873C15 15.922 15.1053 15.6677 15.2929 15.4802C15.4804 15.2926 15.7348 15.1873 16 15.1873C16.2652 15.1873 16.5195 15.2926 16.7071 15.4802C16.8946 15.6677 17 15.922 17 16.1873V18.1873ZM17 11.6873C17 11.9525 16.8946 12.2068 16.7071 12.3944C16.5195 12.5819 16.2652 12.6873 16 12.6873C15.7348 12.6873 15.4804 12.5819 15.2929 12.3944C15.1053 12.2068 15 11.9525 15 11.6873V10.6873C15 10.422 15.1053 10.1677 15.2929 9.98016C15.4804 9.79262 15.7348 9.68726 16 9.68726C16.2652 9.68726 16.5195 9.79262 16.7071 9.98016C16.8946 10.1677 17 10.422 17 10.6873V11.6873Z" fill="white"/>
</g>
</svg>
