<svg width="32" height="32" viewBox="0 0 32 32" fill="none" xmlns="http://www.w3.org/2000/svg">
<g id="share">
<path id="Vector" d="M29.7075 14.7075L19.7075 24.7075C19.5676 24.8475 19.3894 24.9429 19.1953 24.9815C19.0012 25.0202 18.8 25.0004 18.6172 24.9246C18.4344 24.8489 18.2782 24.7206 18.1683 24.556C18.0584 24.3914 17.9998 24.1979 18 24V19.0287C10.8625 19.4337 5.96875 24.0625 4.595 25.5287C4.37929 25.7591 4.09641 25.9156 3.78663 25.9759C3.47684 26.0362 3.15593 25.9972 2.86957 25.8645C2.58321 25.7319 2.34598 25.5123 2.19166 25.237C2.03733 24.9617 1.97376 24.6448 2.01 24.3312C2.47375 20.2987 4.6825 16.42 8.23 13.41C11.1763 10.91 14.7575 9.32374 18 9.04624V3.99999C17.9998 3.8021 18.0584 3.60861 18.1683 3.44401C18.2782 3.27942 18.4344 3.15112 18.6172 3.07537C18.8 2.99962 19.0012 2.97981 19.1953 3.01846C19.3894 3.05712 19.5676 3.15248 19.7075 3.29249L29.7075 13.2925C29.8005 13.3854 29.8742 13.4957 29.9246 13.6171C29.9749 13.7385 30.0008 13.8686 30.0008 14C30.0008 14.1314 29.9749 14.2615 29.9246 14.3829C29.8742 14.5043 29.8005 14.6146 29.7075 14.7075Z" fill="white"/>
</g>
</svg>
