<svg width="30" height="28" viewBox="0 0 30 28" fill="none" xmlns="http://www.w3.org/2000/svg">
<path id="Star 5" d="M14.1033 1.50424C14.4701 0.760994 15.5299 0.760996 15.8967 1.50424L19.4696 8.74368C19.6153 9.03882 19.8968 9.24339 20.2225 9.29072L28.2117 10.4516C29.032 10.5708 29.3595 11.5788 28.766 12.1573L22.9849 17.7924C22.7492 18.0222 22.6417 18.3532 22.6973 18.6776L24.062 26.6345C24.2022 27.4514 23.3447 28.0743 22.6111 27.6886L15.4653 23.9319C15.174 23.7787 14.826 23.7787 14.5347 23.9319L7.38891 27.6886C6.65528 28.0743 5.79785 27.4514 5.93796 26.6345L7.30268 18.6776C7.35831 18.3532 7.25077 18.0222 7.01508 17.7924L1.23404 12.1573C0.640526 11.5788 0.968038 10.5708 1.78826 10.4516L9.77745 9.29072C10.1032 9.24339 10.3847 9.03882 10.5304 8.74368L14.1033 1.50424Z" fill="#999999"/>
</svg>
