<svg width="64" height="65" viewBox="0 0 64 65" fill="none" xmlns="http://www.w3.org/2000/svg">
<g id="Sun">
<path id="Vector" d="M30.0003 10.6873V4.68729C30.0003 4.15685 30.211 3.64815 30.5861 3.27307C30.9612 2.898 31.4699 2.68729 32.0003 2.68729C32.5308 2.68729 33.0395 2.898 33.4145 3.27307C33.7896 3.64815 34.0003 4.15685 34.0003 4.68729V10.6873C34.0003 11.2177 33.7896 11.7264 33.4145 12.1015C33.0395 12.4766 32.5308 12.6873 32.0003 12.6873C31.4699 12.6873 30.9612 12.4766 30.5861 12.1015C30.211 11.7264 30.0003 11.2177 30.0003 10.6873ZM32.0003 16.6873C28.8358 16.6873 25.7424 17.6257 23.1112 19.3838C20.48 21.1419 18.4293 23.6407 17.2182 26.5644C16.0072 29.488 15.6904 32.705 16.3078 35.8087C16.9251 38.9124 18.449 41.7634 20.6866 44.001C22.9243 46.2386 25.7752 47.7625 28.8789 48.3799C31.9826 48.9972 35.1996 48.6804 38.1233 47.4694C41.0469 46.2584 43.5457 44.2076 45.3038 41.5764C47.0619 38.9452 48.0003 35.8518 48.0003 32.6873C47.9957 28.4452 46.3085 24.3783 43.3089 21.3787C40.3093 18.3791 36.2424 16.6919 32.0003 16.6873ZM14.5853 18.1023C14.9606 18.4776 15.4696 18.6884 16.0003 18.6884C16.531 18.6884 17.04 18.4776 17.4153 18.1023C17.7906 17.727 18.0014 17.218 18.0014 16.6873C18.0014 16.1566 17.7906 15.6476 17.4153 15.2723L13.4153 11.2723C13.04 10.897 12.531 10.6862 12.0003 10.6862C11.4696 10.6862 10.9606 10.897 10.5853 11.2723C10.21 11.6476 9.99921 12.1566 9.99921 12.6873C9.99921 13.218 10.21 13.727 10.5853 14.1023L14.5853 18.1023ZM14.5853 47.2723L10.5853 51.2723C10.21 51.6476 9.99921 52.1566 9.99921 52.6873C9.99921 53.218 10.21 53.727 10.5853 54.1023C10.9606 54.4776 11.4696 54.6884 12.0003 54.6884C12.531 54.6884 13.04 54.4776 13.4153 54.1023L17.4153 50.1023C17.6011 49.9165 17.7485 49.6959 17.8491 49.4531C17.9497 49.2103 18.0014 48.9501 18.0014 48.6873C18.0014 48.4245 17.9497 48.1643 17.8491 47.9215C17.7485 47.6787 17.6011 47.4581 17.4153 47.2723C17.2295 47.0865 17.0089 46.9391 16.7661 46.8385C16.5233 46.7379 16.2631 46.6862 16.0003 46.6862C15.7375 46.6862 15.4773 46.7379 15.2345 46.8385C14.9917 46.9391 14.7711 47.0865 14.5853 47.2723ZM48.0003 18.6873C48.263 18.6875 48.5232 18.6359 48.766 18.5356C49.0088 18.4352 49.2294 18.288 49.4153 18.1023L53.4153 14.1023C53.7906 13.727 54.0014 13.218 54.0014 12.6873C54.0014 12.1566 53.7906 11.6476 53.4153 11.2723C53.04 10.897 52.531 10.6862 52.0003 10.6862C51.4696 10.6862 50.9606 10.897 50.5853 11.2723L46.5853 15.2723C46.3053 15.552 46.1146 15.9085 46.0373 16.2967C45.96 16.6848 45.9996 17.0872 46.1511 17.4529C46.3026 17.8185 46.5592 18.131 46.8884 18.3507C47.2175 18.5705 47.6045 18.6876 48.0003 18.6873ZM49.4153 47.2723C49.04 46.897 48.531 46.6862 48.0003 46.6862C47.4696 46.6862 46.9606 46.897 46.5853 47.2723C46.21 47.6476 45.9992 48.1566 45.9992 48.6873C45.9992 49.218 46.21 49.727 46.5853 50.1023L50.5853 54.1023C50.7711 54.2881 50.9917 54.4355 51.2345 54.5361C51.4773 54.6366 51.7375 54.6884 52.0003 54.6884C52.2631 54.6884 52.5233 54.6366 52.7661 54.5361C53.0089 54.4355 53.2295 54.2881 53.4153 54.1023C53.6011 53.9165 53.7485 53.6959 53.8491 53.4531C53.9497 53.2103 54.0014 52.9501 54.0014 52.6873C54.0014 52.4245 53.9497 52.1643 53.8491 51.9215C53.7485 51.6787 53.6011 51.4581 53.4153 51.2723L49.4153 47.2723ZM12.0003 32.6873C12.0003 32.1569 11.7896 31.6481 11.4145 31.2731C11.0395 30.898 10.5308 30.6873 10.0003 30.6873H4.00032C3.46989 30.6873 2.96118 30.898 2.58611 31.2731C2.21103 31.6481 2.00032 32.1569 2.00032 32.6873C2.00032 33.2177 2.21103 33.7264 2.58611 34.1015C2.96118 34.4766 3.46989 34.6873 4.00032 34.6873H10.0003C10.5308 34.6873 11.0395 34.4766 11.4145 34.1015C11.7896 33.7264 12.0003 33.2177 12.0003 32.6873ZM32.0003 52.6873C31.4699 52.6873 30.9612 52.898 30.5861 53.2731C30.211 53.6481 30.0003 54.1569 30.0003 54.6873V60.6873C30.0003 61.2177 30.211 61.7264 30.5861 62.1015C30.9612 62.4766 31.4699 62.6873 32.0003 62.6873C32.5308 62.6873 33.0395 62.4766 33.4145 62.1015C33.7896 61.7264 34.0003 61.2177 34.0003 60.6873V54.6873C34.0003 54.1569 33.7896 53.6481 33.4145 53.2731C33.0395 52.898 32.5308 52.6873 32.0003 52.6873ZM60.0003 30.6873H54.0003C53.4699 30.6873 52.9612 30.898 52.5861 31.2731C52.211 31.6481 52.0003 32.1569 52.0003 32.6873C52.0003 33.2177 52.211 33.7264 52.5861 34.1015C52.9612 34.4766 53.4699 34.6873 54.0003 34.6873H60.0003C60.5308 34.6873 61.0395 34.4766 61.4145 34.1015C61.7896 33.7264 62.0003 33.2177 62.0003 32.6873C62.0003 32.1569 61.7896 31.6481 61.4145 31.2731C61.0395 30.898 60.5308 30.6873 60.0003 30.6873Z" fill="#EE8100"/>
</g>
</svg>
